<svg data-v-423bf9ae="" xmlns="http://www.w3.org/2000/svg" viewBox="0 0 280.3065860798981 163" class="iconAbove"><!----><!----><!----><g data-v-423bf9ae="" id="bd028903-613b-41d8-9ead-4b0fe3753f36" fill="black" transform="matrix(5.410279456668789,0,0,5.410279456668789,-2.5969312885380305,88.44634747514513)"><path d="M0.48 6.40L1.91 6.40L3.24 11.47L3.45 12.62L3.58 12.62L3.81 11.48L5.26 6.62L6.75 6.62L8.18 11.47L8.43 12.62L8.57 12.62L8.78 11.48L10.12 6.40L11.44 6.40L9.14 13.64L7.71 13.64L6.33 9.16L6.02 7.90L5.88 7.90L5.56 9.16L4.16 13.64L2.73 13.64L0.48 6.40ZM18.65 12.29L18.65 13.03L18.65 13.03Q18.39 13.21 18.05 13.35L18.05 13.35L18.05 13.35Q17.71 13.49 17.35 13.59L17.35 13.59L17.35 13.59Q16.99 13.69 16.62 13.73L16.62 13.73L16.62 13.73Q16.26 13.78 15.94 13.78L15.94 13.78L15.94 13.78Q15.24 13.78 14.62 13.55L14.62 13.55L14.62 13.55Q13.99 13.32 13.51 12.87L13.51 12.87L13.51 12.87Q13.04 12.41 12.76 11.75L12.76 11.75L12.76 11.75Q12.48 11.08 12.48 10.21L12.48 10.21L12.48 10.21Q12.48 9.32 12.78 8.59L12.78 8.59L12.78 8.59Q13.08 7.85 13.58 7.34L13.58 7.34L13.58 7.34Q14.08 6.82 14.73 6.54L14.73 6.54L14.73 6.54Q15.38 6.26 16.10 6.26L16.10 6.26L16.10 6.26Q16.68 6.26 17.18 6.46L17.18 6.46L17.18 6.46Q17.68 6.65 18.06 7.04L18.06 7.04L18.06 7.04Q18.43 7.43 18.64 8.02L18.64 8.02L18.64 8.02Q18.85 8.60 18.85 9.38L18.85 9.38L18.85 9.38Q18.85 9.54 18.84 9.75L18.84 9.75L18.84 9.75Q18.83 9.97 18.79 10.21L18.79 10.21L13.84 10.21L13.84 10.21Q13.84 10.80 14.04 11.26L14.04 11.26L14.04 11.26Q14.25 11.72 14.63 12.04L14.63 12.04L14.63 12.04Q15.01 12.36 15.54 12.52L15.54 12.52L15.54 12.52Q16.06 12.69 16.70 12.69L16.70 12.69L16.70 12.69Q16.86 12.69 17.08 12.67L17.08 12.67L17.08 12.67Q17.31 12.66 17.57 12.62L17.57 12.62L17.57 12.62Q17.83 12.58 18.11 12.50L18.11 12.50L18.11 12.50Q18.39 12.42 18.65 12.29L18.65 12.29ZM13.84 9.41L17.62 9.41L17.62 9.41Q17.62 8.89 17.48 8.50L17.48 8.50L17.48 8.50Q17.34 8.11 17.09 7.84L17.09 7.84L17.09 7.84Q16.84 7.57 16.52 7.44L16.52 7.44L16.52 7.44Q16.19 7.30 15.83 7.30L15.83 7.30L15.83 7.30Q15.42 7.30 15.05 7.47L15.05 7.47L15.05 7.47Q14.69 7.64 14.42 7.92L14.42 7.92L14.42 7.92Q14.15 8.21 13.99 8.59L13.99 8.59L13.99 8.59Q13.84 8.98 13.84 9.41L13.84 9.41ZM20.88 13.33L20.88 2.69L22.18 2.69L22.18 7.57L22.18 7.57Q22.49 7.29 22.80 7.05L22.80 7.05L22.80 7.05Q23.11 6.81 23.43 6.63L23.43 6.63L23.43 6.63Q23.75 6.46 24.10 6.36L24.10 6.36L24.10 6.36Q24.44 6.26 24.82 6.26L24.82 6.26L24.82 6.26Q25.49 6.26 26.02 6.55L26.02 6.55L26.02 6.55Q26.55 6.84 26.92 7.33L26.92 7.33L26.92 7.33Q27.28 7.81 27.48 8.45L27.48 8.45L27.48 8.45Q27.67 9.08 27.67 9.76L27.67 9.76L27.67 9.76Q27.67 10.60 27.38 11.33L27.38 11.33L27.38 11.33Q27.10 12.06 26.54 12.60L26.54 12.60L26.54 12.60Q25.99 13.15 25.19 13.46L25.19 13.46L25.19 13.46Q24.38 13.78 23.36 13.78L23.36 13.78L23.36 13.78Q22.82 13.78 22.18 13.68L22.18 13.68L22.18 13.68Q21.54 13.58 20.88 13.33L20.88 13.33ZM22.18 8.44L22.18 12.39L22.18 12.39Q22.59 12.57 23.00 12.66L23.00 12.66L23.00 12.66Q23.41 12.74 23.78 12.74L23.78 12.74L23.78 12.74Q24.40 12.74 24.88 12.52L24.88 12.52L24.88 12.52Q25.35 12.29 25.67 11.91L25.67 11.91L25.67 11.91Q25.99 11.53 26.15 11.04L26.15 11.04L26.15 11.04Q26.30 10.55 26.30 10.01L26.30 10.01L26.30 10.01Q26.30 9.51 26.17 9.03L26.17 9.03L26.17 9.03Q26.04 8.56 25.78 8.19L25.78 8.19L25.78 8.19Q25.52 7.81 25.14 7.58L25.14 7.58L25.14 7.58Q24.77 7.36 24.27 7.36L24.27 7.36L24.27 7.36Q23.84 7.36 23.31 7.59L23.31 7.59L23.31 7.59Q22.79 7.82 22.18 8.44L22.18 8.44ZM34.67 11.58L34.67 7.64L34.67 7.64Q34.17 7.42 33.76 7.36L33.76 7.36L33.76 7.36Q33.36 7.30 33.10 7.30L33.10 7.30L33.10 7.30Q32.49 7.30 32.02 7.50L32.02 7.50L32.02 7.50Q31.54 7.70 31.21 8.07L31.21 8.07L31.21 8.07Q30.88 8.43 30.71 8.93L30.71 8.93L30.71 8.93Q30.54 9.44 30.54 10.05L30.54 10.05L30.54 10.05Q30.54 10.58 30.69 11.06L30.69 11.06L30.69 11.06Q30.83 11.54 31.10 11.90L31.10 11.90L31.10 11.90Q31.36 12.26 31.74 12.48L31.74 12.48L31.74 12.48Q32.12 12.69 32.58 12.69L32.58 12.69L32.58 12.69Q33.13 12.69 33.66 12.39L33.66 12.39L33.66 12.39Q34.18 12.09 34.67 11.58L34.67 11.58ZM34.67 6.44L34.67 2.69L35.97 2.69L35.97 13.64L34.96 13.64L34.75 12.39L34.75 12.39Q34.52 12.61 34.23 12.85L34.23 12.85L34.23 12.85Q33.95 13.09 33.60 13.30L33.60 13.30L33.60 13.30Q33.25 13.51 32.84 13.64L32.84 13.64L32.84 13.64Q32.44 13.78 31.98 13.78L31.98 13.78L31.98 13.78Q31.32 13.78 30.80 13.49L30.80 13.49L30.80 13.49Q30.28 13.20 29.92 12.72L29.92 12.72L29.92 12.72Q29.56 12.24 29.37 11.61L29.37 11.61L29.37 11.61Q29.18 10.99 29.18 10.32L29.18 10.32L29.18 10.32Q29.18 9.44 29.49 8.70L29.49 8.70L29.49 8.70Q29.81 7.95 30.37 7.41L30.37 7.41L30.37 7.41Q30.92 6.87 31.66 6.57L31.66 6.57L31.66 6.57Q32.41 6.26 33.26 6.26L33.26 6.26L33.26 6.26Q33.67 6.26 34.03 6.32L34.03 6.32L34.03 6.32Q34.39 6.38 34.67 6.44L34.67 6.44ZM44.09 12.29L44.09 13.03L44.09 13.03Q43.83 13.21 43.49 13.35L43.49 13.35L43.49 13.35Q43.16 13.49 42.79 13.59L42.79 13.59L42.79 13.59Q42.43 13.69 42.06 13.73L42.06 13.73L42.06 13.73Q41.70 13.78 41.38 13.78L41.38 13.78L41.38 13.78Q40.69 13.78 40.06 13.55L40.06 13.55L40.06 13.55Q39.43 13.32 38.96 12.87L38.96 12.87L38.96 12.87Q38.49 12.41 38.21 11.75L38.21 11.75L38.21 11.75Q37.93 11.08 37.93 10.21L37.93 10.21L37.93 10.21Q37.93 9.32 38.22 8.59L38.22 8.59L38.22 8.59Q38.52 7.85 39.02 7.34L39.02 7.34L39.02 7.34Q39.52 6.82 40.17 6.54L40.17 6.54L40.17 6.54Q40.82 6.26 41.54 6.26L41.54 6.26L41.54 6.26Q42.12 6.26 42.63 6.46L42.63 6.46L42.63 6.46Q43.13 6.65 43.50 7.04L43.50 7.04L43.50 7.04Q43.87 7.43 44.08 8.02L44.08 8.02L44.08 8.02Q44.30 8.60 44.30 9.38L44.30 9.38L44.30 9.38Q44.30 9.54 44.28 9.75L44.28 9.75L44.28 9.75Q44.27 9.97 44.23 10.21L44.23 10.21L39.28 10.21L39.28 10.21Q39.28 10.80 39.49 11.26L39.49 11.26L39.49 11.26Q39.70 11.72 40.08 12.04L40.08 12.04L40.08 12.04Q40.46 12.36 40.98 12.52L40.98 12.52L40.98 12.52Q41.51 12.69 42.14 12.69L42.14 12.69L42.14 12.69Q42.30 12.69 42.53 12.67L42.53 12.67L42.53 12.67Q42.75 12.66 43.01 12.62L43.01 12.62L43.01 12.62Q43.27 12.58 43.55 12.50L43.55 12.50L43.55 12.50Q43.83 12.42 44.09 12.29L44.09 12.29ZM39.28 9.41L43.07 9.41L43.07 9.41Q43.07 8.89 42.92 8.50L42.92 8.50L42.92 8.50Q42.78 8.11 42.53 7.84L42.53 7.84L42.53 7.84Q42.29 7.57 41.96 7.44L41.96 7.44L41.96 7.44Q41.64 7.30 41.27 7.30L41.27 7.30L41.27 7.30Q40.86 7.30 40.50 7.47L40.50 7.47L40.50 7.47Q40.13 7.64 39.86 7.92L39.86 7.92L39.86 7.92Q39.59 8.21 39.44 8.59L39.44 8.59L39.44 8.59Q39.28 8.98 39.28 9.41L39.28 9.41ZM48.23 13.64L45.53 6.40L46.99 6.40L48.60 11.42L48.90 12.61L49.04 12.61L49.33 11.42L50.96 6.40L52.29 6.40L49.57 13.64L48.23 13.64Z"></path></g><!----><g data-v-423bf9ae="" id="e8792cd7-c196-46c9-80d0-57af5f2f129f" transform="matrix(2.8125,0,0,2.8125,96,0)" stroke="none" fill="black"><path d="M15.965 16.258l.707-.707 10.39 10.39-.707.707z"></path><path d="M4.935 26.357L26.018 5.274l.707.707L5.642 27.065z"></path><path d="M31 1v4.194h-4.194V1H31m1-1h-6.194v6.194H32V0zM31 26.806V31h-4.194v-4.194H31m1-1h-6.194V32H32v-6.194zM5.194 26.806V31H1v-4.194h4.194m1-1H0V32h6.194v-6.194z"></path></g><!----></svg>