<svg data-v-423bf9ae="" xmlns="http://www.w3.org/2000/svg" viewBox="0 0 378.91626137855644 163" class="iconAbove"><!----><!----><!----><g data-v-423bf9ae="" id="251f933a-f110-492a-badf-060162d56fab" fill="black" transform="matrix(5.911330271427935,0,0,5.911330271427935,-8.807877006803722,81.5418685308699)"><path d="M2.83 13.64L1.49 13.64L1.49 3.63L2.83 3.63L2.83 7.89L8.22 7.89L8.22 3.63L9.56 3.63L9.56 13.64L8.22 13.64L8.22 8.95L2.83 8.95L2.83 13.64ZM15.19 13.78L15.19 13.78L15.19 13.78Q14.38 13.78 13.75 13.49L13.75 13.49L13.75 13.49Q13.13 13.21 12.69 12.72L12.69 12.72L12.69 12.72Q12.26 12.24 12.03 11.59L12.03 11.59L12.03 11.59Q11.80 10.94 11.80 10.23L11.80 10.23L11.80 10.23Q11.80 9.41 12.09 8.69L12.09 8.69L12.09 8.69Q12.38 7.96 12.90 7.42L12.90 7.42L12.90 7.42Q13.41 6.88 14.12 6.57L14.12 6.57L14.12 6.57Q14.83 6.26 15.67 6.26L15.67 6.26L15.67 6.26Q16.48 6.26 17.12 6.55L17.12 6.55L17.12 6.55Q17.75 6.84 18.19 7.33L18.19 7.33L18.19 7.33Q18.62 7.83 18.85 8.47L18.85 8.47L18.85 8.47Q19.07 9.12 19.07 9.83L19.07 9.83L19.07 9.83Q19.07 10.66 18.78 11.38L18.78 11.38L18.78 11.38Q18.48 12.10 17.96 12.63L17.96 12.63L17.96 12.63Q17.45 13.17 16.73 13.47L16.73 13.47L16.73 13.47Q16.02 13.78 15.19 13.78ZM15.48 12.74L15.48 12.74L15.48 12.74Q15.98 12.74 16.38 12.54L16.38 12.54L16.38 12.54Q16.79 12.34 17.08 11.99L17.08 11.99L17.08 11.99Q17.37 11.64 17.53 11.17L17.53 11.17L17.53 11.17Q17.69 10.69 17.69 10.14L17.69 10.14L17.69 10.14Q17.69 9.60 17.53 9.10L17.53 9.10L17.53 9.10Q17.38 8.59 17.08 8.19L17.08 8.19L17.08 8.19Q16.78 7.79 16.35 7.54L16.35 7.54L16.35 7.54Q15.92 7.30 15.38 7.30L15.38 7.30L15.38 7.30Q14.88 7.30 14.48 7.50L14.48 7.50L14.48 7.50Q14.07 7.70 13.78 8.06L13.78 8.06L13.78 8.06Q13.49 8.41 13.33 8.89L13.33 8.89L13.33 8.89Q13.17 9.37 13.17 9.91L13.17 9.91L13.17 9.91Q13.17 10.45 13.32 10.96L13.32 10.96L13.32 10.96Q13.48 11.47 13.78 11.87L13.78 11.87L13.78 11.87Q14.08 12.26 14.50 12.50L14.50 12.50L14.50 12.50Q14.93 12.74 15.48 12.74ZM21.66 11.83L21.66 7.44L20.20 7.44L20.31 6.77L20.31 6.77Q20.84 6.66 21.16 6.49L21.16 6.49L21.16 6.49Q21.49 6.32 21.69 6.07L21.69 6.07L21.69 6.07Q21.90 5.82 22.04 5.46L22.04 5.46L22.04 5.46Q22.18 5.10 22.36 4.60L22.36 4.60L22.96 4.60L22.96 6.40L25.59 6.40L25.31 7.44L22.96 7.44L22.96 11.48L22.96 11.48Q22.96 11.81 23.06 12.04L23.06 12.04L23.06 12.04Q23.16 12.27 23.34 12.41L23.34 12.41L23.34 12.41Q23.52 12.56 23.77 12.62L23.77 12.62L23.77 12.62Q24.02 12.69 24.33 12.69L24.33 12.69L24.33 12.69Q24.64 12.69 24.95 12.63L24.95 12.63L24.95 12.63Q25.27 12.57 25.55 12.47L25.55 12.47L25.55 13.21L25.55 13.21Q25.12 13.49 24.64 13.63L24.64 13.63L24.64 13.63Q24.17 13.78 23.67 13.78L23.67 13.78L23.67 13.78Q23.21 13.78 22.85 13.65L22.85 13.65L22.85 13.65Q22.48 13.52 22.21 13.28L22.21 13.28L22.21 13.28Q21.95 13.03 21.81 12.66L21.81 12.66L21.81 12.66Q21.66 12.30 21.66 11.83L21.66 11.83ZM32.33 8.12L32.33 8.12L32.33 8.12Q32.75 8.24 33.12 8.45L33.12 8.45L33.12 8.45Q33.50 8.66 33.78 8.95L33.78 8.95L33.78 8.95Q34.06 9.24 34.22 9.61L34.22 9.61L34.22 9.61Q34.39 9.99 34.39 10.42L34.39 10.42L34.39 10.42Q34.39 10.77 34.28 11.15L34.28 11.15L34.28 11.15Q34.17 11.53 33.94 11.88L33.94 11.88L33.94 11.88Q33.71 12.24 33.38 12.56L33.38 12.56L33.38 12.56Q33.04 12.88 32.60 13.12L32.60 13.12L32.60 13.12Q32.16 13.36 31.61 13.50L31.61 13.50L31.61 13.50Q31.06 13.64 30.40 13.64L30.40 13.64L27.83 13.64L27.83 3.63L30.65 3.63L30.65 3.63Q31.47 3.63 32.09 3.82L32.09 3.82L32.09 3.82Q32.70 4.01 33.11 4.32L33.11 4.32L33.11 4.32Q33.52 4.63 33.73 5.02L33.73 5.02L33.73 5.02Q33.93 5.41 33.93 5.81L33.93 5.81L33.93 5.81Q33.93 6.15 33.80 6.48L33.80 6.48L33.80 6.48Q33.66 6.82 33.44 7.11L33.44 7.11L33.44 7.11Q33.22 7.41 32.93 7.67L32.93 7.67L32.93 7.67Q32.64 7.92 32.33 8.12ZM29.17 8.95L29.17 12.58L30.55 12.58L30.55 12.58Q31.23 12.58 31.70 12.41L31.70 12.41L31.70 12.41Q32.16 12.24 32.45 11.96L32.45 11.96L32.45 11.96Q32.74 11.68 32.86 11.34L32.86 11.34L32.86 11.34Q32.98 10.99 32.98 10.64L32.98 10.64L32.98 10.64Q32.98 10.21 32.81 9.89L32.81 9.89L32.81 9.89Q32.63 9.57 32.31 9.36L32.31 9.36L32.31 9.36Q31.99 9.15 31.54 9.05L31.54 9.05L31.54 9.05Q31.09 8.95 30.54 8.95L30.54 8.95L29.17 8.95ZM29.17 7.89L31.52 7.89L31.52 7.89Q32.01 7.55 32.30 7.12L32.30 7.12L32.30 7.12Q32.59 6.70 32.59 6.19L32.59 6.19L32.59 6.19Q32.59 5.50 32.03 5.09L32.03 5.09L32.03 5.09Q31.47 4.69 30.41 4.69L30.41 4.69L29.17 4.69L29.17 7.89ZM42.12 12.29L42.12 13.03L42.12 13.03Q41.86 13.21 41.52 13.35L41.52 13.35L41.52 13.35Q41.19 13.49 40.82 13.59L40.82 13.59L40.82 13.59Q40.46 13.69 40.10 13.73L40.10 13.73L40.10 13.73Q39.73 13.78 39.42 13.78L39.42 13.78L39.42 13.78Q38.72 13.78 38.09 13.55L38.09 13.55L38.09 13.55Q37.46 13.32 36.99 12.87L36.99 12.87L36.99 12.87Q36.52 12.41 36.24 11.75L36.24 11.75L36.24 11.75Q35.96 11.08 35.96 10.21L35.96 10.21L35.96 10.21Q35.96 9.32 36.25 8.59L36.25 8.59L36.25 8.59Q36.55 7.85 37.05 7.34L37.05 7.34L37.05 7.34Q37.55 6.82 38.20 6.54L38.20 6.54L38.20 6.54Q38.86 6.26 39.57 6.26L39.57 6.26L39.57 6.26Q40.15 6.26 40.66 6.46L40.66 6.46L40.66 6.46Q41.16 6.65 41.53 7.04L41.53 7.04L41.53 7.04Q41.90 7.43 42.12 8.02L42.12 8.02L42.12 8.02Q42.33 8.60 42.33 9.38L42.33 9.38L42.33 9.38Q42.33 9.54 42.31 9.75L42.31 9.75L42.31 9.75Q42.30 9.97 42.26 10.21L42.26 10.21L37.31 10.21L37.31 10.21Q37.31 10.80 37.52 11.26L37.52 11.26L37.52 11.26Q37.73 11.72 38.11 12.04L38.11 12.04L38.11 12.04Q38.49 12.36 39.01 12.52L39.01 12.52L39.01 12.52Q39.54 12.69 40.17 12.69L40.17 12.69L40.17 12.69Q40.33 12.69 40.56 12.67L40.56 12.67L40.56 12.67Q40.78 12.66 41.04 12.62L41.04 12.62L41.04 12.62Q41.30 12.58 41.58 12.50L41.58 12.50L41.58 12.50Q41.86 12.42 42.12 12.29L42.12 12.29ZM37.31 9.41L41.10 9.41L41.10 9.41Q41.10 8.89 40.95 8.50L40.95 8.50L40.95 8.50Q40.81 8.11 40.56 7.84L40.56 7.84L40.56 7.84Q40.32 7.57 39.99 7.44L39.99 7.44L39.99 7.44Q39.67 7.30 39.30 7.30L39.30 7.30L39.30 7.30Q38.89 7.30 38.53 7.47L38.53 7.47L38.53 7.47Q38.17 7.64 37.90 7.92L37.90 7.92L37.90 7.92Q37.63 8.21 37.47 8.59L37.47 8.59L37.47 8.59Q37.31 8.98 37.31 9.41L37.31 9.41ZM48.26 12.56L48.26 12.56L48.26 12.56Q48.09 12.71 47.85 12.92L47.85 12.92L47.85 12.92Q47.61 13.13 47.30 13.32L47.30 13.32L47.30 13.32Q47.00 13.51 46.64 13.64L46.64 13.64L46.64 13.64Q46.28 13.78 45.88 13.78L45.88 13.78L45.88 13.78Q45.51 13.78 45.17 13.65L45.17 13.65L45.17 13.65Q44.82 13.53 44.56 13.28L44.56 13.28L44.56 13.28Q44.29 13.03 44.13 12.66L44.13 12.66L44.13 12.66Q43.97 12.29 43.97 11.81L43.97 11.81L43.97 11.81Q43.97 11.52 44.04 11.22L44.04 11.22L44.04 11.22Q44.11 10.92 44.28 10.64L44.28 10.64L44.28 10.64Q44.45 10.36 44.73 10.12L44.73 10.12L44.73 10.12Q45.01 9.88 45.41 9.70L45.41 9.70L45.41 9.70Q45.82 9.52 46.38 9.41L46.38 9.41L46.38 9.41Q46.93 9.31 47.65 9.31L47.65 9.31L48.26 9.31L48.26 8.68L48.26 8.68Q48.26 8.37 48.15 8.11L48.15 8.11L48.15 8.11Q48.04 7.86 47.85 7.68L47.85 7.68L47.85 7.68Q47.65 7.50 47.38 7.40L47.38 7.40L47.38 7.40Q47.11 7.30 46.79 7.30L46.79 7.30L46.79 7.30Q46.54 7.30 46.26 7.36L46.26 7.36L46.26 7.36Q45.99 7.41 45.71 7.51L45.71 7.51L45.71 7.51Q45.43 7.62 45.18 7.75L45.18 7.75L45.18 7.75Q44.93 7.89 44.73 8.05L44.73 8.05L44.61 7.98L44.34 6.99L44.34 6.99Q44.73 6.77 45.10 6.63L45.10 6.63L45.10 6.63Q45.47 6.49 45.81 6.41L45.81 6.41L45.81 6.41Q46.15 6.32 46.46 6.29L46.46 6.29L46.46 6.29Q46.76 6.26 47.04 6.26L47.04 6.26L47.04 6.26Q48.32 6.26 48.94 6.79L48.94 6.79L48.94 6.79Q49.56 7.32 49.56 8.38L49.56 8.38L49.56 11.95L49.56 11.95Q49.56 12.04 49.57 12.16L49.57 12.16L49.57 12.16Q49.59 12.29 49.64 12.41L49.64 12.41L49.64 12.41Q49.69 12.52 49.79 12.61L49.79 12.61L49.79 12.61Q49.89 12.69 50.06 12.69L50.06 12.69L50.06 12.69Q50.16 12.69 50.31 12.66L50.31 12.66L50.31 12.66Q50.47 12.63 50.63 12.55L50.63 12.55L50.63 13.28L50.63 13.28Q50.30 13.50 49.97 13.64L49.97 13.64L49.97 13.64Q49.64 13.78 49.33 13.78L49.33 13.78L49.33 13.78Q49.05 13.78 48.87 13.67L48.87 13.67L48.87 13.67Q48.69 13.56 48.57 13.38L48.57 13.38L48.57 13.38Q48.45 13.20 48.38 12.98L48.38 12.98L48.38 12.98Q48.31 12.77 48.26 12.56ZM48.26 11.69L48.26 10.10L47.74 10.10L47.74 10.10Q46.94 10.10 46.47 10.22L46.47 10.22L46.47 10.22Q45.99 10.33 45.74 10.52L45.74 10.52L45.74 10.52Q45.49 10.71 45.41 10.95L45.41 10.95L45.41 10.95Q45.34 11.20 45.34 11.46L45.34 11.46L45.34 11.46Q45.34 11.75 45.42 11.98L45.42 11.98L45.42 11.98Q45.50 12.20 45.65 12.36L45.65 12.36L45.65 12.36Q45.79 12.52 46.00 12.61L46.00 12.61L46.00 12.61Q46.20 12.69 46.44 12.69L46.44 12.69L46.44 12.69Q46.63 12.69 46.82 12.64L46.82 12.64L46.82 12.64Q47.02 12.60 47.24 12.49L47.24 12.49L47.24 12.49Q47.46 12.37 47.71 12.18L47.71 12.18L47.71 12.18Q47.96 11.99 48.26 11.69L48.26 11.69ZM52.21 13.64L52.21 6.40L53.22 6.40L53.42 7.66L53.42 7.66Q53.66 7.43 53.97 7.18L53.97 7.18L53.97 7.18Q54.28 6.94 54.64 6.73L54.64 6.73L54.64 6.73Q55.00 6.53 55.40 6.40L55.40 6.40L55.40 6.40Q55.80 6.26 56.23 6.26L56.23 6.26L56.23 6.26Q56.72 6.26 57.12 6.45L57.12 6.45L57.12 6.45Q57.52 6.64 57.81 6.99L57.81 6.99L57.81 6.99Q58.09 7.33 58.25 7.81L58.25 7.81L58.25 7.81Q58.40 8.29 58.40 8.85L58.40 8.85L58.40 13.64L57.10 13.64L57.10 8.97L57.10 8.97Q57.10 8.57 56.99 8.27L56.99 8.27L56.99 8.27Q56.88 7.96 56.68 7.76L56.68 7.76L56.68 7.76Q56.48 7.56 56.21 7.46L56.21 7.46L56.21 7.46Q55.93 7.36 55.61 7.36L55.61 7.36L55.61 7.36Q55.04 7.36 54.54 7.66L54.54 7.66L54.54 7.66Q54.03 7.96 53.50 8.45L53.50 8.45L53.50 13.64L52.21 13.64ZM60.35 13.32L60.63 12.22L60.75 12.14L60.75 12.14Q61.01 12.28 61.30 12.40L61.30 12.40L61.30 12.40Q61.58 12.51 61.87 12.58L61.87 12.58L61.87 12.58Q62.15 12.66 62.42 12.70L62.42 12.70L62.42 12.70Q62.69 12.74 62.92 12.74L62.92 12.74L62.92 12.74Q63.24 12.74 63.51 12.67L63.51 12.67L63.51 12.67Q63.77 12.59 63.96 12.46L63.96 12.46L63.96 12.46Q64.15 12.32 64.25 12.13L64.25 12.13L64.25 12.13Q64.36 11.94 64.36 11.70L64.36 11.70L64.36 11.70Q64.36 11.41 64.20 11.21L64.20 11.21L64.20 11.21Q64.03 11.02 63.77 10.88L63.77 10.88L63.77 10.88Q63.50 10.74 63.16 10.64L63.16 10.64L63.16 10.64Q62.82 10.53 62.46 10.42L62.46 10.42L62.46 10.42Q62.10 10.32 61.76 10.18L61.76 10.18L61.76 10.18Q61.42 10.04 61.15 9.83L61.15 9.83L61.15 9.83Q60.89 9.63 60.72 9.33L60.72 9.33L60.72 9.33Q60.56 9.03 60.56 8.60L60.56 8.60L60.56 8.60Q60.56 8.12 60.77 7.69L60.77 7.69L60.77 7.69Q60.98 7.27 61.37 6.95L61.37 6.95L61.37 6.95Q61.75 6.63 62.29 6.45L62.29 6.45L62.29 6.45Q62.82 6.26 63.48 6.26L63.48 6.26L63.48 6.26Q63.64 6.26 63.85 6.28L63.85 6.28L63.85 6.28Q64.07 6.29 64.32 6.32L64.32 6.32L64.32 6.32Q64.57 6.35 64.82 6.40L64.82 6.40L64.82 6.40Q65.08 6.45 65.32 6.53L65.32 6.53L65.04 7.59L64.88 7.69L64.88 7.69Q64.69 7.59 64.46 7.51L64.46 7.51L64.46 7.51Q64.23 7.44 63.99 7.39L63.99 7.39L63.99 7.39Q63.76 7.35 63.53 7.32L63.53 7.32L63.53 7.32Q63.31 7.30 63.14 7.30L63.14 7.30L63.14 7.30Q62.82 7.30 62.57 7.37L62.57 7.37L62.57 7.37Q62.31 7.44 62.13 7.56L62.13 7.56L62.13 7.56Q61.94 7.69 61.84 7.87L61.84 7.87L61.84 7.87Q61.74 8.05 61.74 8.29L61.74 8.29L61.74 8.29Q61.74 8.59 61.90 8.78L61.90 8.78L61.90 8.78Q62.06 8.98 62.34 9.12L62.34 9.12L62.34 9.12Q62.61 9.26 62.96 9.37L62.96 9.37L62.96 9.37Q63.30 9.47 63.66 9.58L63.66 9.58L63.66 9.58Q64.03 9.69 64.37 9.82L64.37 9.82L64.37 9.82Q64.72 9.96 64.99 10.17L64.99 10.17L64.99 10.17Q65.26 10.38 65.43 10.69L65.43 10.69L65.43 10.69Q65.59 10.99 65.59 11.43L65.59 11.43L65.59 11.43Q65.59 11.94 65.36 12.37L65.36 12.37L65.36 12.37Q65.13 12.80 64.73 13.12L64.73 13.12L64.73 13.12Q64.33 13.43 63.80 13.61L63.80 13.61L63.80 13.61Q63.26 13.78 62.64 13.78L62.64 13.78L62.64 13.78Q62.12 13.78 61.52 13.66L61.52 13.66L61.52 13.66Q60.92 13.54 60.35 13.32L60.35 13.32Z"></path></g><!----><g data-v-423bf9ae="" id="9083eb82-4450-4dce-9a84-8f2c52fcb165" transform="matrix(2.8125,0,0,2.8125,145,0)" stroke="none" fill="black"><path d="M15.965 16.258l.707-.707 10.39 10.39-.707.707z"></path><path d="M4.935 26.357L26.018 5.274l.707.707L5.642 27.065z"></path><path d="M31 1v4.194h-4.194V1H31m1-1h-6.194v6.194H32V0zM31 26.806V31h-4.194v-4.194H31m1-1h-6.194V32H32v-6.194zM5.194 26.806V31H1v-4.194h4.194m1-1H0V32h6.194v-6.194z"></path></g><!----></svg>